Coordinates
version=1
nRows=38
nColumns=12
inDegrees=yes

Units are S.I. units (second, meters, Newtons, ...)
Angles are in degrees

endheader
time	SC_y	SC_z	SC_x	AC_y	AC_z	AC_x	GH_y	GH_z	GH_yy	EL_x	PS_y
       0.0              -28.89          2.819          52.08          45.61          5.581        -0.4616          7.439          72.35          98.37          102.2          92.31
 0.0008885              -28.89          2.819          52.07          45.61          5.578         -0.459           7.46          72.34          98.38          102.2          92.32
  0.001777              -28.89          2.818          52.07          45.61          5.575        -0.4563          7.483          72.33          98.39          102.2          92.32
  0.002666              -28.89          2.818          52.06          45.61          5.572        -0.4534          7.507          72.32           98.4          102.2          92.33
  0.003554              -28.89          2.817          52.06          45.61          5.569        -0.4503          7.532           72.3          98.41          102.2          92.33
  0.004443              -28.89          2.817          52.05          45.61          5.565         -0.447          7.559          72.29          98.42          102.2          92.34
  0.005331               -28.9          2.816          52.04          45.61          5.561        -0.4435          7.588          72.27          98.43          102.2          92.35
   0.00622               -28.9          2.816          52.04          45.61          5.557        -0.4397          7.619          72.25          98.44          102.2          92.35
  0.007108               -28.9          2.815          52.03          45.61          5.552        -0.4357          7.652          72.24          98.46          102.2          92.36
  0.007997               -28.9          2.814          52.02          45.61          5.548        -0.4313          7.688          72.22          98.47          102.2          92.37
  0.008885               -28.9          2.814          52.01          45.62          5.542        -0.4267          7.726           72.2          98.49          102.2          92.37
  0.009774               -28.9          2.813           52.0          45.62          5.537        -0.4217          7.767          72.17          98.51          102.1          92.38
   0.01066              -28.91          2.812          51.99          45.62          5.531        -0.4163          7.812          72.15          98.53          102.1          92.39
   0.01155              -28.91          2.811          51.98          45.62          5.524        -0.4104          7.859          72.12          98.55          102.1           92.4
   0.01244              -28.91           2.81          51.97          45.62          5.517        -0.4041          7.911          72.09          98.57          102.1          92.41
   0.01333              -28.91          2.809          51.95          45.62           5.51        -0.3973          7.967          72.06          98.59          102.1          92.43
   0.01422              -28.92          2.807          51.94          45.63          5.502        -0.3899          8.028          72.03          98.62          102.1          92.44
   0.01511              -28.92          2.806          51.92          45.63          5.493        -0.3818          8.095          71.99          98.65          102.1          92.45
   0.01599              -28.92          2.805          51.91          45.63          5.483        -0.3729          8.168          71.95          98.68          102.1          92.47
   0.01688              -28.93          2.803          51.89          45.63          5.472        -0.3632          8.247          71.91          98.71          102.1          92.49
   0.01777              -28.93          2.801          51.87          45.64           5.46        -0.3526          8.334          71.86          98.75          102.1          92.51
   0.01866              -28.94          2.799          51.85          45.64          5.447        -0.3409           8.43          71.81          98.79          102.1          92.53
   0.01955              -28.94          2.797          51.82          45.64          5.433         -0.328          8.537          71.75          98.84          102.1          92.55
   0.02044              -28.95          2.795          51.79          45.65          5.417        -0.3137          8.654          71.68          98.89          102.1          92.57
   0.02132              -28.96          2.792          51.76          45.65            5.4        -0.2978          8.785          71.61          98.94          102.1           92.6
   0.02221              -28.96          2.789          51.73          45.66           5.38          -0.28          8.931          71.53           99.0          102.1          92.63
    0.0231              -28.97          2.786          51.69          45.66          5.358        -0.2601          9.094          71.44          99.07          102.1          92.67
   0.02399              -28.98          2.782          51.65          45.67          5.333        -0.2377          9.278          71.34          99.15          102.0          92.71
   0.02488              -28.99          2.778           51.6          45.68          5.305        -0.2124          9.485          71.23          99.24          102.0          92.75
   0.02577               -29.0          2.773          51.54          45.68          5.273        -0.1837          9.721           71.1          99.34          102.0           92.8
   0.02666              -29.02          2.767          51.48          45.69          5.237        -0.1509           9.99          70.95          99.46          102.0          92.86
   0.02754              -29.03          2.761           51.4           45.7          5.195        -0.1133           10.3          70.78          99.59          102.0          92.93
   0.02843              -29.05          2.754          51.32          45.71          5.147        -0.0699          10.66          70.58          99.74          101.9           93.0
   0.02932              -29.07          2.745          51.22          45.73          5.091       -0.01944          11.07          70.35          99.92          101.9          93.09
   0.03021               -29.1          2.736          51.11          45.75          5.026         0.0396          11.56          70.09          100.1          101.9          93.19
    0.0311              -29.13          2.724          50.97          45.76          4.949         0.1092          12.13          69.77          100.4          101.8          93.32
   0.03199              -29.16           2.71          50.81          45.79          4.857         0.1919          12.81           69.4          100.7          101.8          93.46
   0.03288               -29.2          2.694          50.62          45.82          4.747          0.291          13.62          68.95          101.0          101.7          93.64
